<?xml version="1.0" encoding="UTF-8" standalone="no"?>
<!-- Generator: Adobe Illustrator 22.0.1, SVG Export Plug-In . SVG Version: 6.00 Build 0)  -->

<svg
   xmlns:dc="http://purl.org/dc/elements/1.1/"
   xmlns:cc="http://creativecommons.org/ns#"
   xmlns:rdf="http://www.w3.org/1999/02/22-rdf-syntax-ns#"
   xmlns:svg="http://www.w3.org/2000/svg"
   xmlns="http://www.w3.org/2000/svg"
   xmlns:sodipodi="http://sodipodi.sourceforge.net/DTD/sodipodi-0.dtd"
   xmlns:inkscape="http://www.inkscape.org/namespaces/inkscape"
   version="1.1"
   id="Capa_1"
   x="0px"
   y="0px"
   viewBox="0 0 128.10001 71"
   xml:space="preserve"
   inkscape:version="0.92.3 (2405546, 2018-03-11)"
   sodipodi:docname="camionEnvios.svg"
   width="128.10001"
   height="71"><metadata
     id="metadata105"><rdf:RDF><cc:Work
         rdf:about=""><dc:format>image/svg+xml</dc:format><dc:type
           rdf:resource="http://purl.org/dc/dcmitype/StillImage" /><dc:title /></cc:Work></rdf:RDF></metadata><defs
     id="defs103" /><sodipodi:namedview
     pagecolor="#ffffff"
     bordercolor="#666666"
     borderopacity="1"
     objecttolerance="10"
     gridtolerance="10"
     guidetolerance="10"
     inkscape:pageopacity="0"
     inkscape:pageshadow="2"
     inkscape:window-width="1366"
     inkscape:window-height="713"
     id="namedview101"
     showgrid="false"
     inkscape:zoom="2.1539722"
     inkscape:cx="113.57872"
     inkscape:cy="31.5"
     inkscape:window-x="0"
     inkscape:window-y="27"
     inkscape:window-maximized="1"
     inkscape:current-layer="Capa_1" /><style
     type="text/css"
     id="style3">
	.st0{fill:#020203;}
	.st1{fill:#FFFFFF;}
	.st2{fill:#131313;}
	.st3{fill:#313131;}
	.st4{fill:#E7E6E6;}
	.st5{fill:#8A1812;}
	.st6{opacity:0.69;fill:#E52521;}
	.st7{opacity:0.3;fill:#020203;}
	.st8{opacity:0.3;fill:#CDCCCC;}
	.st9{fill:#B8E0E8;}
	.st10{fill:#D3D6D6;}
	.st11{fill-rule:evenodd;clip-rule:evenodd;fill:#1C1A19;}
	.st12{fill-rule:evenodd;clip-rule:evenodd;fill:#FFFFFF;}
	.st13{fill-rule:evenodd;clip-rule:evenodd;fill:#141612;}
	.st14{fill-rule:evenodd;clip-rule:evenodd;fill:#E3061A;}
</style><g
     id="g5"
     transform="translate(0,-4)"><path
       class="st0"
       d="M 116.4,51.5 C 116.8,37.1 116,18.6 116.4,4.2 89.6,3.5 62.7,5.1 35.9,4.4 35.2,21.1 36,35.1 36,51.3 c 26.7,0.5 53.6,1.8 80.4,0.2 z"
       id="path7"
       inkscape:connector-curvature="0"
       style="fill:#020203" /><path
       class="st1"
       d="m 36.5,5.8 c -0.3,-0.2 -0.6,0 -0.9,0 0,14.9 0.1,29.8 0.1,44.7 0.4,0.1 0.6,0 0.9,0 0,-14.9 0,-29.8 -0.1,-44.7 z"
       id="path9"
       inkscape:connector-curvature="0"
       style="fill:#ffffff" /><path
       class="st2"
       d="m 33.9,52.9 c 0,-0.4 0,-0.8 0,-1.2 0.8,-0.1 1.6,-0.2 2.5,-0.4 0,0.6 0,1.2 0,1.7 -0.9,0 -1.7,-0.1 -2.5,-0.1 z"
       id="path11"
       inkscape:connector-curvature="0"
       style="fill:#131313" /><path
       class="st0"
       d="m 6.6,31.2 c -0.4,0.7 -0.8,1.5 -1.2,2.2 -0.3,0.7 -0.6,1.3 -0.9,2 -0.3,0.6 -0.6,1.2 -0.6,1.9 0.3,4.7 -0.2,9.9 0,14.6 10.2,0.4 20.3,0.4 30.5,0 -0.7,-9.4 0.4,-19.9 -0.5,-29.3 -6.9,0.3 -13.8,0.7 -20.7,1 -0.6,0 -1.2,0.1 -1.7,0.3 -0.8,0.4 -1.3,1.4 -1.8,2.1 -0.6,0.9 -1.2,1.8 -1.8,2.7 -0.4,0.8 -0.9,1.7 -1.3,2.5 z"
       id="path13"
       inkscape:connector-curvature="0"
       style="fill:#020203" /><path
       class="st3"
       d="m 116.3,53.7 c 0.4,-1.1 0,-2.4 0,-3.6 -26.8,0 -53.7,0.1 -80.5,0 -0.3,1.5 0.1,2.3 0.1,3.6 26.7,0 53.6,0.1 80.4,0 z"
       id="path15"
       inkscape:connector-curvature="0"
       style="fill:#313131" /><path
       class="st1"
       d="m 116.3,5 c -0.3,-0.2 -0.6,0 -0.9,0 0,15 0.1,30 0.1,45 0.4,0.1 0.6,0 0.9,0 0,-15 0,-30 -0.1,-45 z"
       id="path17"
       inkscape:connector-curvature="0"
       style="fill:#ffffff" /><path
       class="st3"
       d="m 3,49.7 c 1.2,-0.3 2.5,-0.3 3.8,-0.2 0,0.3 0.1,0.5 0.1,0.8 9.3,0.1 18.3,0.2 27.6,0.3 0.3,1.2 0.1,2.1 0,3.1 -9.6,0.1 -19.2,0.3 -28.8,0.4 -0.7,0 -1.6,0 -2,-0.5 C 3.5,53.3 3.4,53 3.3,52.7 3.1,51.7 3,50.7 3,49.7 Z"
       id="path19"
       inkscape:connector-curvature="0"
       style="fill:#313131" /><path
       class="st4"
       d="m 19.9,53.7 c 0.1,0.7 0.2,1.5 0.4,2.2 0.2,0.6 0.4,1.2 0.8,1.6 0.6,0.6 1.4,0.9 2.3,1 0.6,0.1 1.2,0.2 1.8,0.2 0.5,0 1,0 1.5,-0.2 0.5,-0.2 0.8,-0.6 1.2,-0.9 0.9,-0.9 1.8,-1.9 1.8,-3.1 0,-0.7 -0.3,-1.3 -0.6,-1.9 -0.8,-1.4 -1.9,-2.6 -3.5,-2.9 -0.4,-0.1 -0.7,-0.1 -1.1,-0.1 -0.4,0 -0.7,0.2 -1.1,0.3 -0.5,0.2 -1,0.4 -1.6,0.5 -0.6,0.2 -1.2,0.4 -1.6,0.9 -0.4,0.7 -0.4,1.6 -0.3,2.4 z"
       id="path21"
       inkscape:connector-curvature="0"
       style="fill:#e7e6e6" /><path
       class="st3"
       d="m 30.4,51.5 c -0.1,-0.4 -0.3,-0.9 -0.6,-1.2 -0.6,-0.8 -1.5,-1.2 -2.4,-1.5 -1.7,-0.5 -3.5,-0.4 -5.2,0.1 -1.2,0.4 -2.4,1.1 -3.1,2.3 -0.8,1.4 -0.8,3.3 -0.3,4.8 0.3,0.8 0.7,1.5 1.2,2 0.5,0.6 1.2,1.1 1.9,1.4 2.1,1 4.6,0.9 6.5,-0.7 1.9,-1.6 2.8,-4.7 2,-7.2 z M 28,55.4 c -0.4,0.8 -1.1,1.2 -1.8,1.5 -0.7,0.2 -1.5,0.2 -2.2,0.2 -0.4,0 -0.8,0 -1.2,-0.2 -0.8,-0.4 -1.2,-1.4 -1.5,-2.3 -0.2,-0.9 -0.2,-1.9 0.3,-2.5 0.3,-0.4 0.8,-0.5 1.2,-0.6 1.5,-0.2 3,0.1 4.5,0.4 0.4,0.1 0.8,0.2 1,0.6 0.1,0.2 0.1,0.5 0.1,0.8 -0.1,0.6 -0.1,1.5 -0.4,2.1 z"
       id="path23"
       inkscape:connector-curvature="0"
       style="fill:#313131" /><path
       class="st3"
       d="m 26.1,53.1 c -0.4,-0.4 -1,-0.4 -1.5,-0.4 -0.5,0 -1,0.1 -1.4,0.2 -0.1,0 -0.2,0.1 -0.3,0.1 -0.3,0.2 -0.3,0.7 -0.2,1.1 0.2,0.8 0.7,1.4 1.4,1.6 0.6,0.2 1.4,0.1 2,-0.2 0.3,-0.2 0.5,-0.4 0.6,-0.7 0.1,-0.6 -0.2,-1.4 -0.6,-1.7 z"
       id="path25"
       inkscape:connector-curvature="0"
       style="fill:#313131" /><path
       class="st4"
       d="m 91.1,53.6 c 0.1,0.7 0.2,1.5 0.4,2.2 0.2,0.6 0.4,1.2 0.8,1.6 0.6,0.6 1.4,0.9 2.3,1 0.6,0.1 1.2,0.2 1.8,0.2 0.5,0 1,0 1.5,-0.2 0.5,-0.2 0.8,-0.6 1.2,-0.9 0.9,-0.9 1.8,-1.9 1.8,-3.1 0,-0.7 -0.3,-1.3 -0.6,-1.9 -0.8,-1.4 -1.9,-2.6 -3.5,-2.9 -0.4,-0.1 -0.7,-0.1 -1.1,-0.1 -0.4,0 -0.7,0.2 -1.1,0.3 -0.5,0.2 -1,0.4 -1.6,0.5 -0.6,0.2 -1.2,0.4 -1.6,0.9 -0.4,0.7 -0.4,1.6 -0.3,2.4 z"
       id="path27"
       inkscape:connector-curvature="0"
       style="fill:#e7e6e6" /><path
       class="st3"
       d="m 101.7,51.4 c -0.1,-0.4 -0.3,-0.9 -0.6,-1.2 -0.6,-0.8 -1.5,-1.2 -2.4,-1.5 -1.7,-0.5 -3.5,-0.4 -5.2,0.1 -1.2,0.4 -2.4,1.1 -3.1,2.3 -0.8,1.4 -0.8,3.3 -0.3,4.8 0.3,0.8 0.7,1.5 1.2,2 0.5,0.6 1.2,1.1 1.9,1.4 2.1,1 4.6,0.9 6.5,-0.7 1.8,-1.6 2.7,-4.7 2,-7.2 z m -2.5,3.9 c -0.4,0.8 -1.1,1.2 -1.8,1.5 -0.7,0.2 -1.5,0.2 -2.2,0.2 -0.4,0 -0.8,0 -1.2,-0.2 -0.8,-0.4 -1.2,-1.4 -1.5,-2.3 -0.2,-0.9 -0.2,-1.9 0.3,-2.5 0.3,-0.4 0.8,-0.5 1.2,-0.6 1.5,-0.2 3,0.1 4.5,0.4 0.4,0.1 0.8,0.2 1,0.6 0.1,0.2 0.1,0.5 0.1,0.8 0,0.6 -0.1,1.5 -0.4,2.1 z"
       id="path29"
       inkscape:connector-curvature="0"
       style="fill:#313131" /><path
       class="st3"
       d="m 97.3,53 c -0.4,-0.4 -1,-0.4 -1.5,-0.4 -0.5,0 -1,0.1 -1.4,0.2 -0.1,0 -0.2,0.1 -0.3,0.1 -0.3,0.2 -0.3,0.7 -0.2,1.1 0.2,0.8 0.7,1.4 1.4,1.6 0.6,0.2 1.4,0.1 2,-0.2 0.3,-0.2 0.5,-0.4 0.6,-0.7 C 98,54.1 97.7,53.3 97.3,53 Z"
       id="path31"
       inkscape:connector-curvature="0"
       style="fill:#313131" /><path
       class="st2"
       d="m 49.7,49.9 c -0.1,0 -0.1,0 -0.1,0.1 0,0 0,0.1 0,0.2 0,1.2 0,2.3 0,3.5 0.3,0 0.7,-0.1 1,-0.2 0,-1.2 0,-2.3 0,-3.5 -0.3,-0.1 -0.6,-0.1 -0.9,-0.1 z"
       id="path33"
       inkscape:connector-curvature="0"
       style="fill:#131313" /><path
       class="st2"
       d="m 48.2,49.9 c -0.1,0 -0.1,0 -0.1,0.1 0,0 0,0.1 0,0.2 0,1.2 0,2.3 0,3.5 0.3,0 0.7,-0.1 1,-0.2 0,-1.2 0,-2.3 0,-3.5 -0.3,-0.1 -0.6,-0.1 -0.9,-0.1 z"
       id="path35"
       inkscape:connector-curvature="0"
       style="fill:#131313" /><path
       class="st2"
       d="m 46.5,49.9 c -0.1,0 -0.1,0 -0.1,0.1 0,0 0,0.1 0,0.2 0,1.2 0,2.3 0,3.5 0.3,0 0.7,-0.1 1,-0.2 0,-1.2 0,-2.3 0,-3.5 -0.3,-0.1 -0.6,-0.1 -0.9,-0.1 z"
       id="path37"
       inkscape:connector-curvature="0"
       style="fill:#131313" /><path
       class="st2"
       d="m 107.6,50.1 c -0.1,0 -0.1,0 -0.1,0.1 0,0 0,0.1 0,0.2 0,1.2 0,2.3 0,3.5 0.3,0 0.7,-0.1 1,-0.2 0,-1.2 0,-2.3 0,-3.5 -0.3,-0.1 -0.6,-0.1 -0.9,-0.1 z"
       id="path39"
       inkscape:connector-curvature="0"
       style="fill:#131313" /><path
       class="st2"
       d="m 106.2,50.1 c -0.1,0 -0.1,0 -0.1,0.1 0,0 0,0.1 0,0.2 0,1.2 0,2.3 0,3.5 0.3,0 0.7,-0.1 1,-0.2 0,-1.2 0,-2.3 0,-3.5 -0.4,-0.1 -0.7,-0.1 -0.9,-0.1 z"
       id="path41"
       inkscape:connector-curvature="0"
       style="fill:#131313" /><path
       class="st2"
       d="m 104.5,50.1 c -0.1,0 -0.1,0 -0.1,0.1 0,0 0,0.1 0,0.2 0,1.2 0,2.3 0,3.5 0.3,0 0.7,-0.1 1,-0.2 0,-1.2 0,-2.3 0,-3.5 -0.4,-0.1 -0.7,-0.1 -0.9,-0.1 z"
       id="path43"
       inkscape:connector-curvature="0"
       style="fill:#131313" /><path
       class="st0"
       d="m 18.7,20.1 c -1.4,0.6 -5.7,2.5 -6.8,3.7 6.3,-0.3 15.7,-0.7 22,-1 0,-2.6 -0.3,-6.2 -0.5,-8.7 -1.5,0.1 -2.9,0.7 -4.2,1.3 -3.6,1.5 -7,3.1 -10.5,4.7 z"
       id="path45"
       inkscape:connector-curvature="0"
       style="fill:#020203" /><path
       class="st5"
       d="m 117.7,54.3 c 0.1,-0.1 0.1,-0.3 0.1,-0.4 0,-1.3 0,-2.6 0,-3.8 -0.9,0.1 -1.8,0.3 -2.7,0.4 0,1.3 -0.1,2.6 -0.1,3.9 0.8,0 1.7,0 2.5,0 0,0 0.1,0 0.2,-0.1 z"
       id="path47"
       inkscape:connector-curvature="0"
       style="fill:#8a1812" /><path
       class="st0"
       d="m 116.3,5.8 c 0.4,-0.6 0,-1.2 0,-1.8 -26.9,0 -53.7,0 -80.6,0 -0.3,0.8 0.1,1.2 0.1,1.8 26.8,0 53.7,0.1 80.5,0 z"
       id="path49"
       inkscape:connector-curvature="0"
       style="fill:#020203" /><path
       class="st6"
       d="m 115.3,41.4 c 0.4,-0.4 0,-0.8 0,-1.3 -26.2,0 -52.4,0 -78.6,0 -0.3,0.5 0.1,0.8 0.1,1.2 26.1,0.1 52.4,0.2 78.5,0.1 z"
       id="path51"
       inkscape:connector-curvature="0"
       style="opacity:0.68999999;fill:#e52521" /><path
       class="st7"
       d="m 34.2,41.3 c 0,-0.3 0.1,-0.7 0,-1.1 -10.1,0 -20.2,0 -30.3,0 -0.2,0.5 0.1,0.8 0.1,1.2 10,0 20.1,0 30.2,0 0,0 0,0 0,-0.1 z"
       id="path53"
       inkscape:connector-curvature="0"
       style="opacity:0.3;fill:#020203" /><path
       class="st8"
       d="m 27.4,40.2 c 0,-5.6 0,-11.2 0,-16.8 0,0 0,0 0,0 -0.1,0 -0.3,-0.1 -0.4,0 0,5.6 0,11.2 0,16.7 0.1,0.1 0.3,0.1 0.4,0.1 z"
       id="path55"
       inkscape:connector-curvature="0"
       style="opacity:0.3;fill:#cdcccc" /><path
       class="st3"
       d="m 24.1,36.9 c -0.2,0 -0.4,0.1 -0.5,0.2 -0.2,0.1 -0.3,0.3 -0.3,0.5 0,0 0,0.1 0,0.1 0,0 0.1,0 0.1,0.1 0.6,0 1.1,0.1 1.7,0.1 0.1,0 0.2,0 0.3,0 0.2,-0.1 0.2,-0.4 0.2,-0.7 0,-0.1 0,-0.3 -0.1,-0.4 -0.1,0 -0.2,-0.1 -0.2,-0.1 -0.5,0 -0.9,0.1 -1.2,0.2 z"
       id="path57"
       inkscape:connector-curvature="0"
       style="fill:#313131" /><path
       class="st9"
       d="m 20.3,25.8 c -2.6,0 -5.2,0.1 -7.7,0.3 -0.5,0 -1.1,0.1 -1.5,0.3 -0.5,0.3 -0.8,0.8 -1.1,1.4 -1,1.8 -1.9,3.7 -2.7,5.6 -0.2,0.5 -0.4,0.9 -0.6,1.4 -0.1,0.3 -0.6,1 -0.5,1.4 0.1,0.7 2,0.4 2.7,0.4 4.6,0 9.2,-0.1 13.8,-0.4 0.8,0 1.9,0.2 2,-0.7 0.2,-1 0,-2.2 -0.1,-3.3 0,-1.8 0,-3.7 -0.1,-5.5 0,-0.9 -0.3,-0.9 -1.2,-0.9 -1,0 -2,0 -3,0 z"
       id="path59"
       inkscape:connector-curvature="0"
       style="fill:#b8e0e8" /><path
       class="st10"
       d="M 9.2,33.4 C 8.8,32.2 8.8,30.9 9,29.7 c -0.6,1.2 -1.2,2.4 -1.7,3.7 -0.2,0.5 -0.4,0.9 -0.6,1.4 -0.1,0.3 -0.6,1 -0.5,1.4 0.1,0.7 2,0.4 2.7,0.4 0.7,0 1.5,0 2.2,0 -0.8,-1.1 -1.5,-2.1 -1.9,-3.2 z"
       id="path61"
       inkscape:connector-curvature="0"
       style="fill:#d3d6d6" /><path
       class="st5"
       d="m 6.5,37.9 c 0,0 -0.1,-0.1 -0.2,-0.1 -0.7,0 -1.4,0 -2.1,0.2 -0.1,0 -0.2,0 -0.2,0.1 -0.1,0.1 -0.1,0.2 -0.1,0.3 0,0.3 0,0.6 0,0.9 0.9,0 1.8,0 2.7,-0.2 0,-0.4 0,-0.8 -0.1,-1.3 0,0.2 0,0.2 0,0.1 z"
       id="path63"
       inkscape:connector-curvature="0"
       style="fill:#8a1812" /><g
       id="g65"><path
         class="st11"
         d="m 75.8,38 c 8.1,0 14.7,-6.6 14.7,-14.7 0,-8.1 -6.6,-14.7 -14.7,-14.7 -8.1,0 -14.7,6.6 -14.7,14.7 0,8.1 6.6,14.7 14.7,14.7 z"
         id="path67"
         inkscape:connector-curvature="0"
         style="clip-rule:evenodd;fill:#1c1a19;fill-rule:evenodd" /><path
         class="st12"
         d="m 75.8,8.6 c -8.1,0 -14.7,6.6 -14.7,14.7 0,8.1 6.6,14.7 14.7,14.7 8.1,0 14.7,-6.6 14.7,-14.7 0,-8.1 -6.6,-14.7 -14.7,-14.7 z m 0,29.5 C 67.7,38.1 61,31.5 61,23.3 61,15.2 67.6,8.5 75.8,8.5 c 8.1,0 14.8,6.6 14.8,14.8 -0.1,8.1 -6.7,14.8 -14.8,14.8 z"
         id="path69"
         inkscape:connector-curvature="0"
         style="clip-rule:evenodd;fill:#ffffff;fill-rule:evenodd" /><path
         class="st12"
         d="M 75.8,37 C 83.4,37 89.5,30.8 89.5,23.3 89.5,15.7 83.3,9.6 75.8,9.6 68.2,9.6 62,15.7 62,23.3 62,30.9 68.2,37 75.8,37 Z"
         id="path71"
         inkscape:connector-curvature="0"
         style="clip-rule:evenodd;fill:#ffffff;fill-rule:evenodd" /><path
         class="st13"
         d="m 75.8,35.9 c 6.9,0 12.6,-5.6 12.6,-12.6 0,-6.9 -5.6,-12.6 -12.6,-12.6 -6.9,0 -12.6,5.6 -12.6,12.6 0,6.9 5.7,12.6 12.6,12.6 z"
         id="path73"
         inkscape:connector-curvature="0"
         style="clip-rule:evenodd;fill:#141612;fill-rule:evenodd" /><path
         class="st12"
         d="m 68.2,24.2 -0.1,0.3 c -0.1,0.2 -0.2,0.4 -0.2,0.6 h -1.1 c 0,-0.1 0.1,-0.2 0.1,-0.3 0.3,-1 0.5,-1.6 0.6,-1.9 0,-0.1 0.1,-0.1 0.2,-0.2 0.1,0 0.1,-0.1 0.3,-0.1 0.1,0 0.2,0 0.4,0 0.1,0 0.2,0 0.3,0.1 0.1,0 0.1,0.1 0.1,0.2 0,0.1 0,0.2 -0.1,0.5 -0.2,0.2 -0.3,0.5 -0.5,0.8 z"
         id="path75"
         inkscape:connector-curvature="0"
         style="clip-rule:evenodd;fill:#ffffff;fill-rule:evenodd" /><path
         class="st12"
         d="m 67.9,25.1 c 0,0.1 -0.1,0.2 -0.1,0.3 -0.1,0.2 -0.1,0.4 -0.2,0.8 0.2,0 0.4,-0.1 0.6,-0.1 0.2,0 0.3,-0.1 0.3,-0.1 0.1,0 0.1,0 0.1,0.1 0,0.1 0,0.2 -0.1,0.3 -0.1,0.1 -0.2,0.2 -0.2,0.3 -0.1,0.1 -0.2,0.1 -0.3,0.1 -0.1,0 -0.3,0 -0.6,0 -0.2,0 -0.4,0 -0.6,0 0,0 0,0 -0.1,0 -0.1,-0.1 -0.2,-0.2 -0.2,-0.3 0,-0.1 0,-0.3 0.1,-0.6 0,-0.2 0.1,-0.5 0.2,-0.8 z"
         id="path77"
         inkscape:connector-curvature="0"
         style="clip-rule:evenodd;fill:#ffffff;fill-rule:evenodd" /><path
         class="st12"
         d="M 71.4,24 71,25 h -0.8 c 0.1,-0.2 0.2,-0.4 0.2,-0.4 0,-0.1 0.1,-0.2 0.2,-0.3 0.1,-0.1 0.1,-0.3 0.2,-0.4 0.1,-0.2 0.2,-0.4 0.3,-0.7 L 71,22.9 c 0,0 0.1,-0.1 0.1,-0.1 0.1,-0.1 0.3,-0.1 0.5,-0.1 0.2,0 0.4,0.1 0.5,0.2 0.1,0.1 0.2,0.3 0.2,0.5 0.1,0.2 0.1,0.5 0.2,0.9 0,0.2 0.1,0.3 0.1,0.4 0,0.1 0.1,0.2 0.1,0.3 h -1.1 z"
         id="path79"
         inkscape:connector-curvature="0"
         style="clip-rule:evenodd;fill:#ffffff;fill-rule:evenodd" /><path
         class="st12"
         d="m 72.8,25.1 c 0,0.1 0.1,0.2 0.1,0.3 0,0.1 0,0.1 0.1,0.2 0,0.1 0.1,0.2 0.1,0.2 0.1,0.2 0.2,0.4 0.3,0.6 -0.2,0.1 -0.3,0.2 -0.4,0.3 -0.1,0.1 -0.2,0.1 -0.3,0.1 -0.1,0 -0.2,0 -0.3,-0.1 -0.1,0 -0.1,-0.1 -0.2,-0.2 C 72,26.4 72,26.2 71.9,26 c 0,0 0,-0.1 0,-0.1 0,0 0,-0.1 0,-0.1 -0.2,0.1 -0.4,0.2 -0.5,0.2 -0.1,0 -0.1,0 -0.2,0 0,0 -0.2,0 -0.6,0 v 0.1 c -0.1,0.2 -0.2,0.4 -0.3,0.6 -0.1,0.1 -0.2,0.2 -0.3,0.3 -0.1,0.1 -0.3,0.1 -0.4,0.1 -0.1,0 -0.2,0 -0.2,0 0,0 -0.1,-0.1 -0.1,-0.1 0,-0.1 0.1,-0.3 0.3,-0.6 0.1,-0.1 0.1,-0.2 0.2,-0.3 -0.2,0 -0.3,-0.1 -0.3,-0.2 0,-0.1 0.1,-0.2 0.2,-0.4 0,0 0.1,-0.1 0.1,-0.1 z"
         id="path81"
         inkscape:connector-curvature="0"
         style="clip-rule:evenodd;fill:#ffffff;fill-rule:evenodd" /><path
         class="st12"
         d="m 75,25 c -0.1,-0.2 -0.2,-0.3 -0.3,-0.4 -0.1,-0.1 -0.1,-0.3 -0.1,-0.4 0,-0.2 0.1,-0.5 0.2,-0.7 0.1,-0.2 0.3,-0.4 0.5,-0.5 0.2,-0.1 0.5,-0.2 0.7,-0.2 0.3,0 0.5,0.1 0.7,0.2 0.2,0.1 0.2,0.3 0.2,0.6 0,0.1 0,0.2 -0.1,0.4 -0.1,0.1 -0.1,0.2 -0.2,0.3 -0.1,0.1 -0.1,0.1 -0.2,0.2 -0.1,0 -0.1,0.1 -0.1,0.1 0,0 -0.1,0 -0.1,-0.1 0,0 0,0 0,-0.1 0,-0.1 0,-0.2 0,-0.3 0,-0.1 0,-0.2 0,-0.3 0,-0.1 -0.1,-0.2 -0.1,-0.3 0,-0.1 -0.1,-0.1 -0.1,-0.1 0,0 0,0 -0.1,0.1 -0.1,0.1 -0.1,0.1 -0.1,0.2 0,0.1 0,0.2 0,0.2 0,0.1 0,0.2 0,0.3 0,0.1 0.1,0.2 0.1,0.2 0.1,0.1 0.1,0.2 0.2,0.3 0.2,0.2 0.3,0.3 0.4,0.4 v 0 z"
         id="path83"
         inkscape:connector-curvature="0"
         style="clip-rule:evenodd;fill:#ffffff;fill-rule:evenodd" /><path
         class="st12"
         d="m 76.6,25.1 c 0,0.1 0,0.2 0,0.3 0,0.2 -0.1,0.5 -0.2,0.7 -0.1,0.2 -0.3,0.4 -0.5,0.5 -0.2,0.1 -0.4,0.2 -0.6,0.2 -0.2,0 -0.4,0 -0.6,-0.1 -0.2,-0.1 -0.4,-0.2 -0.5,-0.4 -0.2,-0.2 -0.3,-0.3 -0.3,-0.5 0,-0.1 0,-0.2 0.1,-0.2 0.1,-0.1 0.2,-0.2 0.3,-0.2 0.1,-0.1 0.2,-0.1 0.3,-0.1 0,0 0.1,0 0.1,0 0,0 0.1,0.1 0.1,0.1 0,0.1 0,0.1 0.1,0.2 0,0.1 0.1,0.2 0.1,0.3 0,0.1 0.1,0.1 0.1,0.2 0.1,0.1 0.1,0.1 0.2,0.1 0.1,0 0.1,0 0.2,-0.1 0,-0.1 0.1,-0.2 0.1,-0.3 0,-0.2 -0.1,-0.4 -0.2,-0.5 0,-0.1 -0.1,-0.1 -0.1,-0.2 0,0 -0.1,-0.1 -0.2,-0.2 z"
         id="path85"
         inkscape:connector-curvature="0"
         style="clip-rule:evenodd;fill:#ffffff;fill-rule:evenodd" /><path
         class="st12"
         d="m 80.6,25.5 h -1 v 0.1 c 0,0.2 0,0.3 0.1,0.4 0.1,0.1 0.2,0.2 0.3,0.2 0.1,0 0.2,0 0.4,-0.1 0.2,-0.1 0.4,-0.2 0.6,-0.3 l 0.1,-0.1 c 0.1,0 0.1,-0.1 0.1,-0.1 0.1,-0.1 0.2,-0.1 0.2,-0.1 0,0 0.1,0 0.1,0.1 0,0.1 0,0.2 0,0.3 0,0.1 -0.1,0.2 -0.1,0.3 0,0.1 -0.1,0.2 -0.1,0.2 -0.1,0.1 -0.3,0.2 -0.6,0.3 -0.3,0.1 -0.5,0.2 -0.8,0.3 -0.1,0 -0.2,0 -0.2,0 -0.3,0 -0.5,-0.1 -0.7,-0.2 -0.2,-0.1 -0.4,-0.3 -0.5,-0.5 -0.1,-0.2 -0.2,-0.4 -0.2,-0.7 0,-0.1 0,-0.3 0,-0.4 h 2.8 v 0 c -0.2,0.2 -0.4,0.3 -0.5,0.3 z"
         id="path87"
         inkscape:connector-curvature="0"
         style="clip-rule:evenodd;fill:#ffffff;fill-rule:evenodd" /><path
         class="st12"
         d="m 78.4,24.9 c 0.1,-0.2 0.2,-0.4 0.3,-0.6 0.1,-0.2 0.3,-0.5 0.5,-0.7 0.2,-0.2 0.3,-0.3 0.5,-0.5 0.2,-0.1 0.4,-0.3 0.6,-0.3 0.2,-0.1 0.3,-0.1 0.5,-0.1 0.2,0 0.4,0.1 0.6,0.2 0.2,0.1 0.3,0.3 0.3,0.5 0,0.1 0,0.2 0,0.3 0,0.1 -0.1,0.2 -0.1,0.3 -0.1,0.1 -0.1,0.2 -0.2,0.3 -0.1,0.1 -0.2,0.2 -0.4,0.2 -0.2,0.1 -0.3,0.1 -0.4,0.1 -0.1,0 -0.2,0 -0.2,-0.1 0,0 0,-0.1 0.1,-0.2 0.1,-0.1 0.1,-0.2 0.2,-0.3 0.1,-0.1 0.1,-0.3 0.2,-0.4 0,-0.2 0.1,-0.3 0.1,-0.4 0,-0.1 0,-0.1 -0.1,-0.1 -0.1,0 -0.2,0.1 -0.4,0.2 -0.2,0.2 -0.3,0.3 -0.4,0.5 -0.1,0.1 -0.2,0.3 -0.2,0.4 -0.1,0.2 -0.1,0.3 -0.1,0.4 h 1.5 c 0.2,0 0.2,0 0.2,0.1 z"
         id="path89"
         inkscape:connector-curvature="0"
         style="clip-rule:evenodd;fill:#ffffff;fill-rule:evenodd" /><path
         class="st12"
         d="m 83.7,23.8 0.1,-0.2 c -0.1,0 -0.1,0 -0.2,0 0,0 -0.1,0 -0.2,0 -0.1,0 -0.1,-0.1 -0.1,-0.2 0,0 0,-0.1 0,-0.2 0,-0.1 0.1,-0.1 0.1,-0.1 0.1,-0.1 0.2,-0.1 0.4,-0.2 0.2,0 0.5,-0.1 0.7,-0.1 0.2,0 0.4,0 0.6,0.1 0.2,0.1 0.4,0.2 0.5,0.3 0.1,0.1 0.3,0.2 0.3,0.4 0.1,0.1 0.1,0.3 0.1,0.5 0,0.2 0,0.4 -0.1,0.5 0,0.1 -0.1,0.1 -0.1,0.2 h -1 c 0.1,-0.1 0.1,-0.2 0.2,-0.3 0.1,-0.2 0.1,-0.3 0.1,-0.5 0,-0.2 0,-0.3 -0.1,-0.4 -0.1,-0.1 -0.2,-0.2 -0.4,-0.2 -0.1,0.5 -0.3,1 -0.4,1.5 h -1 c 0,-0.1 0.1,-0.2 0.1,-0.2 0.2,-0.3 0.3,-0.6 0.4,-0.9 z"
         id="path91"
         inkscape:connector-curvature="0"
         style="clip-rule:evenodd;fill:#ffffff;fill-rule:evenodd" /><path
         class="st12"
         d="m 85.4,25.2 c 0,0 -0.1,0 -0.1,0 0,0.1 0.1,0.1 0.1,0.2 0,0 0.1,0.1 0.1,0.2 0.2,0.2 0.4,0.3 0.7,0.5 0,0 0,0 0.1,0 0,0.2 -0.1,0.3 -0.1,0.4 0,0.1 -0.1,0.2 -0.1,0.3 -0.1,0.2 -0.3,0.3 -0.4,0.3 -0.1,0 -0.2,0 -0.3,-0.1 C 85.3,26.9 85.2,26.8 85.1,26.7 85,26.6 85,26.5 84.9,26.4 84.8,26.3 84.8,26.2 84.7,26.1 84.6,26 84.6,25.9 84.6,25.7 c 0,-0.1 -0.1,-0.2 -0.1,-0.3 0,0 0,0 0,-0.1 0,0 0,0 0,-0.1 z"
         id="path93"
         inkscape:connector-curvature="0"
         style="clip-rule:evenodd;fill:#ffffff;fill-rule:evenodd" /><path
         class="st12"
         d="m 84.3,25.2 v 0.2 c -0.1,0.4 -0.2,0.6 -0.3,0.8 -0.1,0.2 -0.1,0.3 -0.2,0.4 -0.1,0.1 -0.2,0.1 -0.3,0.2 -0.1,0.1 -0.3,0.1 -0.3,0.1 -0.2,0 -0.2,-0.1 -0.2,-0.3 0,-0.1 0,-0.2 0.1,-0.4 0,-0.2 0.1,-0.4 0.2,-0.7 0,-0.1 0,-0.2 0.1,-0.2 h 0.9 z"
         id="path95"
         inkscape:connector-curvature="0"
         style="clip-rule:evenodd;fill:#ffffff;fill-rule:evenodd" /><path
         class="st12"
         d="M 77.7,18.1 77.8,18 c -0.1,0 -0.1,0 -0.2,0 0,0 -0.1,0 -0.2,0 -0.1,0 -0.1,0 -0.1,-0.1 0,0 0,-0.1 0,-0.1 0,0 0.1,-0.1 0.1,-0.1 0.1,0 0.2,-0.1 0.4,-0.1 0.2,0 0.5,0 0.8,0 0.2,0 0.4,0 0.7,0.1 0.2,0 0.4,0.1 0.5,0.2 0.2,0.1 0.3,0.1 0.4,0.2 0.1,0.1 0.1,0.2 0.1,0.3 0,0.1 0,0.2 -0.1,0.3 -0.1,0.1 -0.2,0.2 -0.3,0.2 -0.1,0 -0.2,0.1 -0.2,0.1 -0.1,0 -0.2,0 -0.3,0.1 0,0 0.1,0.1 0.1,0.1 0,0 0.1,0.1 0.1,0.1 0.2,0.1 0.4,0.2 0.8,0.3 0,0 0,0 0.1,0 0,0.1 -0.1,0.2 -0.1,0.2 0,0.1 -0.1,0.1 -0.2,0.2 -0.1,0.1 -0.3,0.2 -0.4,0.2 -0.1,0 -0.2,0 -0.4,-0.1 -0.1,0 -0.3,-0.1 -0.3,-0.2 -0.1,-0.1 -0.1,-0.1 -0.2,-0.2 -0.1,-0.1 -0.1,-0.1 -0.2,-0.2 -0.1,-0.1 -0.1,-0.1 -0.2,-0.2 0,-0.1 -0.1,-0.1 -0.1,-0.2 0,0 0,0 0,0 0,0 0,0 0,-0.1 0,0 0.1,0 0.1,0 0.1,0 0.2,0 0.2,-0.1 0.1,0 0.1,-0.1 0.2,-0.1 0.1,-0.1 0.2,-0.1 0.2,-0.2 0.1,-0.1 0.1,-0.2 0.1,-0.3 0,-0.1 0,-0.2 -0.1,-0.3 -0.1,0 -0.2,0 -0.4,-0.1 -0.2,0.4 -0.3,0.7 -0.5,1.1 l -0.1,0.1 c -0.1,0.2 -0.2,0.4 -0.3,0.5 -0.1,0.1 -0.1,0.2 -0.2,0.2 -0.1,0 -0.2,0.1 -0.3,0.1 -0.1,0 -0.3,0.1 -0.3,0.1 -0.2,0 -0.2,-0.1 -0.2,-0.2 0,0 0,-0.1 0.1,-0.2 0,-0.1 0.1,-0.3 0.2,-0.4 0.1,-0.2 0.2,-0.4 0.3,-0.5 0.1,-0.2 0.2,-0.4 0.3,-0.6 z m -3.4,1.2 v 0 c 0,0.1 0,0.2 0.1,0.3 0.1,0.1 0.2,0.1 0.3,0.1 0.1,0 0.3,0 0.4,-0.1 0.2,0 0.4,-0.1 0.7,-0.2 h 0.1 c 0.1,0 0.1,0 0.1,-0.1 0.1,0 0.2,-0.1 0.2,-0.1 0,0 0.1,0 0.1,0.1 0,0 0,0.1 0,0.2 0,0.1 -0.1,0.1 -0.1,0.2 0,0.1 -0.1,0.1 -0.1,0.1 -0.1,0.1 -0.3,0.1 -0.6,0.2 -0.3,0.1 -0.6,0.1 -0.8,0.2 -0.1,0 -0.2,0 -0.3,0 -0.3,0 -0.5,0 -0.7,-0.1 C 73.5,20 73.3,19.9 73.2,19.8 73,19.7 73,19.5 73,19.4 c 0,-0.1 0,-0.3 0.1,-0.4 0.1,-0.1 0.2,-0.3 0.3,-0.4 0.1,-0.1 0.3,-0.3 0.5,-0.4 0.2,-0.1 0.3,-0.2 0.5,-0.3 0.2,-0.1 0.4,-0.1 0.6,-0.2 0.2,0 0.4,-0.1 0.5,-0.1 0.2,0 0.5,0 0.6,0.1 0.2,0.1 0.3,0.2 0.3,0.3 0,0.1 0,0.1 0,0.2 0,0.1 -0.1,0.1 -0.1,0.2 -0.1,0.1 -0.1,0.1 -0.2,0.2 -0.1,0.1 -0.2,0.1 -0.4,0.1 -0.2,0 -0.3,0.1 -0.4,0.1 -0.1,0 -0.2,0 -0.2,-0.1 0,0 0,-0.1 0.1,-0.1 0.1,0 0.1,-0.1 0.2,-0.2 0.1,-0.1 0.1,-0.2 0.2,-0.3 0,-0.1 0.1,-0.2 0.1,-0.2 0,0 0,-0.1 -0.1,-0.1 -0.1,0 -0.2,0 -0.4,0.1 -0.2,0.1 -0.3,0.2 -0.4,0.3 -0.1,0.1 -0.2,0.2 -0.2,0.3 -0.1,0.1 -0.1,0.2 -0.1,0.3 z m -3.7,-1.4 -0.2,-0.2 c 0,0 0.1,0 0.1,0 0.2,0 0.3,0 0.6,0 0.2,0 0.4,0 0.5,0.1 0.1,0.1 0.2,0.2 0.3,0.3 0.1,0.1 0.1,0.3 0.2,0.5 0,0.1 0.1,0.2 0.1,0.3 0.1,0.2 0.1,0.3 0.1,0.3 0,0 0.1,0.1 0.1,0.2 0,0 0,0.1 0.1,0.1 0,0.1 0.1,0.1 0.1,0.1 0.1,0.1 0.2,0.2 0.3,0.4 -0.2,0.1 -0.3,0.1 -0.4,0.2 -0.1,0 -0.2,0 -0.3,0 -0.1,0 -0.2,0 -0.3,0 -0.1,0 -0.1,-0.1 -0.2,-0.1 -0.1,-0.1 -0.2,-0.2 -0.2,-0.3 0,0 0,0 0,-0.1 0,0 0,0 0,-0.1 -0.2,0.1 -0.4,0.1 -0.5,0.1 -0.1,0 -0.1,0 -0.2,0 0,0 -0.3,0 -0.6,0 v 0 C 70.1,19.8 70,20 69.9,20 c -0.1,0.1 -0.2,0.1 -0.3,0.2 -0.1,0 -0.3,0 -0.5,0 -0.1,0 -0.2,0 -0.2,0 0,0 -0.1,0 -0.1,-0.1 0,0 0.1,-0.2 0.3,-0.3 0.1,-0.1 0.1,-0.1 0.2,-0.2 -0.2,0 -0.3,-0.1 -0.3,-0.1 0,-0.1 0.1,-0.1 0.2,-0.2 0.1,-0.1 0.2,-0.1 0.2,-0.1 0.1,0 0.2,0 0.4,0 0.2,-0.2 0.3,-0.3 0.3,-0.3 0,-0.1 0.1,-0.1 0.2,-0.2 0.1,-0.1 0.1,-0.2 0.2,-0.3 -0.1,-0.2 0,-0.3 0.1,-0.5 z m 0.3,0.5 -0.5,0.7 h 0.8 z m 11.7,0.2 -0.1,0.1 c -0.1,0.2 -0.2,0.4 -0.4,0.6 -0.1,0.1 -0.1,0.2 -0.2,0.5 l -0.2,0.4 c -0.1,0.1 -0.5,0 -0.6,0 0,0 0,0 -0.1,0 -0.1,0 -0.2,-0.1 -0.2,-0.2 0,-0.1 0,-0.2 0.1,-0.4 0.1,-0.2 0.2,-0.4 0.3,-0.7 0.3,-0.6 0.5,-1 0.6,-1.1 0,-0.1 0.1,-0.1 0.2,-0.1 0.1,0 0.2,0 0.3,-0.1 0.1,0 0.2,0 0.4,0 0.1,0 0.2,0 0.3,0 0.1,0 0.1,0.1 0.1,0.1 0,0.1 0,0.1 -0.1,0.3 -0.1,0.2 -0.3,0.4 -0.4,0.6 z"
         id="path97"
         inkscape:connector-curvature="0"
         style="clip-rule:evenodd;fill:#ffffff;fill-rule:evenodd" /><polygon
         class="st14"
         points="63.5,25.1 86.8,24.8 86.8,25.2 "
         id="polygon99"
         style="clip-rule:evenodd;fill:#e3061a;fill-rule:evenodd" /></g></g></svg>