<?xml version="1.0" encoding="utf-8"?>
<!-- Generator: Adobe Illustrator 22.0.1, SVG Export Plug-In . SVG Version: 6.00 Build 0)  -->
<svg version="1.1" id="Capa_1" xmlns="http://www.w3.org/2000/svg" xmlns:xlink="http://www.w3.org/1999/xlink" x="0px" y="0px"
	 viewBox="0 0 99 59.5" style="enable-background:new 0 0 99 59.5;" xml:space="preserve">
<style type="text/css">
	.st0{fill-rule:evenodd;clip-rule:evenodd;fill:#29ABE2;}
	.st1{fill-rule:evenodd;clip-rule:evenodd;fill:#1A1A1A;}
	.st2{fill-rule:evenodd;clip-rule:evenodd;fill:#FFFFFF;}
	.st3{opacity:0.13;fill-rule:evenodd;clip-rule:evenodd;fill:#FFFFFF;}
</style>
<g>
	<path class="st0" d="M79.6,4.2h-66c-3.5,0-6.4,2.9-6.4,6.4v38.6c0,3.5,2.9,6.4,6.4,6.4h66c3.5,0,6.4-2.9,6.4-6.4V10.6
		C86,7.1,83.1,4.2,79.6,4.2z"/>
	<rect x="7.1" y="14.7" class="st1" width="78.9" height="10.4"/>
	<rect x="35.8" y="30" class="st2" width="50.2" height="6.5"/>
	<rect x="13.4" y="30" class="st2" width="19.6" height="6.5"/>
	<path class="st3" d="M62.3,55.7H13.6c-3.5,0-6.4-2.9-6.4-6.4V10.6c0-3.5,2.9-6.4,6.4-6.4h19.7L62.3,55.7z"/>
</g>
</svg>
