<?xml version="1.0" encoding="UTF-8" standalone="no"?>
<!-- Generator: Adobe Illustrator 22.0.1, SVG Export Plug-In . SVG Version: 6.00 Build 0)  -->

<svg
   xmlns:dc="http://purl.org/dc/elements/1.1/"
   xmlns:cc="http://creativecommons.org/ns#"
   xmlns:rdf="http://www.w3.org/1999/02/22-rdf-syntax-ns#"
   xmlns:svg="http://www.w3.org/2000/svg"
   xmlns="http://www.w3.org/2000/svg"
   xmlns:sodipodi="http://sodipodi.sourceforge.net/DTD/sodipodi-0.dtd"
   xmlns:inkscape="http://www.inkscape.org/namespaces/inkscape"
   version="1.1"
   id="Capa_1"
   x="0px"
   y="0px"
   viewBox="0 0 392 100"
   style="enable-background:new 0 0 392 100;"
   xml:space="preserve"
   inkscape:version="0.92.3 (2405546, 2018-03-11)"
   sodipodi:docname="tenesAlgunaDuda.svg"><metadata
     id="metadata75"><rdf:RDF><cc:Work
         rdf:about=""><dc:format>image/svg+xml</dc:format><dc:type
           rdf:resource="http://purl.org/dc/dcmitype/StillImage" /></cc:Work></rdf:RDF></metadata><defs
     id="defs73" /><sodipodi:namedview
     pagecolor="#ffffff"
     bordercolor="#666666"
     borderopacity="1"
     objecttolerance="10"
     gridtolerance="10"
     guidetolerance="10"
     inkscape:pageopacity="0"
     inkscape:pageshadow="2"
     inkscape:window-width="1366"
     inkscape:window-height="713"
     id="namedview71"
     showgrid="false"
     inkscape:zoom="1.3418367"
     inkscape:cx="79.544144"
     inkscape:cy="29.012989"
     inkscape:window-x="0"
     inkscape:window-y="27"
     inkscape:window-maximized="1"
     inkscape:current-layer="g5" /><style
     type="text/css"
     id="style3">
	.st0{fill:#333333;}
</style><g
     id="g5"><path
       d="m 56.8,36.8 c 3.3,0 5.3,1.8 5.3,4.8 0,5.4 -9.7,6.9 -9.7,13.6 0,1.8 1.2,3.7 3.5,3.7 3.7,0 3.2,-2.7 4.6,-4.7 1.8,-2.6 10.1,-5.4 10.1,-12.6 0,-7.8 -7,-11.1 -14.1,-11.1 -6.8,0 -13,4.8 -13,10.3 0,2.2 1.7,3.4 3.6,3.4 5.3,-0.1 2.6,-7.4 9.7,-7.4 z m 0,0"
       id="path7"
       inkscape:connector-curvature="0" /><path
       d="m 60.7,67 c 0,-2.5 -2.1,-4.6 -4.5,-4.6 -2.5,0 -4.6,2.1 -4.6,4.6 0,2.5 2.1,4.5 4.6,4.5 2.5,0 4.5,-2 4.5,-4.5 z m 0,0"
       id="path9"
       inkscape:connector-curvature="0" /><path
       d="M 93,51 C 93,31.1 76.8,15 57,15 37.1,15 21,31.1 21,51 21,70.8 37.1,87 57,87 76.8,87 93,70.8 93,51 Z M 24.6,51 C 24.6,33.1 39.1,18.6 57,18.6 74.9,18.6 89.4,33.1 89.4,51 89.4,68.9 74.9,83.4 57,83.4 39.1,83.4 24.6,68.9 24.6,51 Z m 0,0"
       id="path11"
       inkscape:connector-curvature="0" /></g><g
     id="g13"
     transform="translate(0,-4)"><path
       d="m 129.1,36.8 0.1,0.8 c 0.2,1.6 -0.4,3.3 -1.9,5.1 -1.3,1.6 -2.1,2.7 -2.1,4.1 0,1.5 0.9,2.5 2.8,2.5 1,0 2.3,-0.3 3,-0.9 l 0.7,1.9 c -1,0.7 -2.7,1.2 -4.3,1.2 -3.4,0 -5,-2.1 -5,-4.4 0,-2 1.1,-3.5 2.6,-5.2 1.3,-1.6 1.8,-2.8 1.7,-4.4 v -0.8 h 2.4 z m 0.7,-4.3 c 0,1 -0.7,1.9 -1.8,1.9 -1.1,0 -1.8,-0.8 -1.8,-1.9 0,-1.1 0.7,-1.9 1.8,-1.9 1.1,0 1.8,0.8 1.8,1.9 z"
       id="path15"
       inkscape:connector-curvature="0" /><path
       d="M 139.2,27.3 H 133 v -2.2 h 15 v 2.2 h -6.2 v 18 h -2.6 z"
       id="path17"
       inkscape:connector-curvature="0" /><path
       d="m 149.5,38.5 c 0.1,3.6 2.3,5 5,5 1.9,0 3,-0.3 4,-0.8 l 0.4,1.9 c -0.9,0.4 -2.5,0.9 -4.8,0.9 -4.5,0 -7.1,-2.9 -7.1,-7.3 0,-4.4 2.6,-7.8 6.8,-7.8 4.7,0 6,4.2 6,6.8 0,0.5 -0.1,1 -0.1,1.2 h -10.2 z m 7.7,-1.9 c 0,-1.7 -0.7,-4.3 -3.7,-4.3 -2.7,0 -3.8,2.5 -4,4.3 z"
       id="path19"
       inkscape:connector-curvature="0" /><path
       d="m 163.1,34.7 c 0,-1.5 0,-2.7 -0.1,-3.9 h 2.3 l 0.2,2.4 h 0.1 c 0.7,-1.4 2.4,-2.7 4.8,-2.7 2,0 5.1,1.2 5.1,6.2 v 8.7 h -2.6 V 37 c 0,-2.3 -0.9,-4.3 -3.4,-4.3 -1.7,0 -3.1,1.2 -3.5,2.7 -0.1,0.3 -0.2,0.8 -0.2,1.2 v 8.7 h -2.6 V 34.7 Z"
       id="path21"
       inkscape:connector-curvature="0" /><path
       d="m 181.2,38.5 c 0.1,3.6 2.3,5 5,5 1.9,0 3,-0.3 4,-0.8 l 0.4,1.9 c -0.9,0.4 -2.5,0.9 -4.8,0.9 -4.5,0 -7.1,-2.9 -7.1,-7.3 0,-4.4 2.6,-7.8 6.8,-7.8 4.7,0 6,4.2 6,6.8 0,0.5 -0.1,1 -0.1,1.2 h -10.2 z m 7.7,-1.9 c 0,-1.7 -0.7,-4.3 -3.7,-4.3 -2.7,0 -3.8,2.5 -4,4.3 z"
       id="path23"
       inkscape:connector-curvature="0" /><path
       d="m 194.4,42.6 c 0.8,0.5 2.2,1 3.5,1 1.9,0 2.8,-1 2.8,-2.2 0,-1.3 -0.8,-2 -2.7,-2.7 -2.6,-0.9 -3.8,-2.4 -3.8,-4.1 0,-2.3 1.9,-4.3 5,-4.3 1.5,0 2.8,0.4 3.6,0.9 l -0.7,1.9 c -0.6,-0.4 -1.6,-0.8 -3,-0.8 -1.6,0 -2.4,0.9 -2.4,2 0,1.2 0.9,1.7 2.8,2.5 2.5,1 3.8,2.2 3.8,4.4 0,2.5 -2,4.3 -5.4,4.3 -1.6,0 -3.1,-0.4 -4.1,-1 z"
       id="path25"
       inkscape:connector-curvature="0" /><path
       d="m 221,45.3 -0.2,-1.8 h -0.1 c -0.8,1.1 -2.4,2.2 -4.4,2.2 -2.9,0 -4.4,-2.1 -4.4,-4.2 0,-3.5 3.1,-5.4 8.7,-5.4 v -0.3 c 0,-1.2 -0.3,-3.4 -3.3,-3.4 -1.3,0 -2.8,0.4 -3.8,1.1 l -0.6,-1.7 c 1.2,-0.8 2.9,-1.3 4.8,-1.3 4.4,0 5.5,3 5.5,5.9 v 5.4 c 0,1.3 0.1,2.5 0.2,3.5 z m -0.4,-7.4 c -2.9,-0.1 -6.1,0.5 -6.1,3.3 0,1.7 1.1,2.5 2.5,2.5 1.9,0 3.1,-1.2 3.5,-2.4 0.1,-0.3 0.2,-0.6 0.2,-0.8 v -2.6 z"
       id="path27"
       inkscape:connector-curvature="0" /><path
       d="m 227.4,24 h 2.6 v 21.3 h -2.6 z"
       id="path29"
       inkscape:connector-curvature="0" /><path
       d="m 247,30.8 c -0.1,1 -0.1,2.2 -0.1,4 v 8.4 c 0,3.3 -0.7,5.4 -2.1,6.6 -1.4,1.3 -3.4,1.7 -5.3,1.7 -1.7,0 -3.7,-0.4 -4.8,-1.2 l 0.7,-2 c 1,0.6 2.5,1.1 4.3,1.1 2.7,0 4.7,-1.4 4.7,-5.1 v -1.6 h -0.1 c -0.8,1.4 -2.4,2.4 -4.6,2.4 -3.6,0 -6.2,-3.1 -6.2,-7.1 0,-4.9 3.2,-7.7 6.5,-7.7 2.5,0 3.9,1.3 4.5,2.5 h 0.1 l 0.1,-2.2 h 2.3 z m -2.7,5.7 c 0,-0.4 0,-0.8 -0.2,-1.2 -0.5,-1.5 -1.8,-2.8 -3.7,-2.8 -2.5,0 -4.3,2.1 -4.3,5.5 0,2.9 1.4,5.2 4.3,5.2 1.6,0 3.1,-1 3.7,-2.7 0.1,-0.5 0.2,-1 0.2,-1.4 z"
       id="path31"
       inkscape:connector-curvature="0" /><path
       d="m 263.4,41.3 c 0,1.5 0,2.8 0.1,4 h -2.3 L 261,42.9 v 0 c -0.7,1.2 -2.2,2.7 -4.8,2.7 -2.3,0 -5,-1.3 -5,-6.4 v -8.5 h 2.6 v 8 c 0,2.8 0.8,4.6 3.2,4.6 1.8,0 3,-1.2 3.5,-2.4 0.1,-0.4 0.2,-0.9 0.2,-1.3 v -8.9 h 2.6 v 10.6 z"
       id="path33"
       inkscape:connector-curvature="0" /><path
       d="m 267.8,34.7 c 0,-1.5 0,-2.7 -0.1,-3.9 h 2.3 l 0.2,2.4 h 0.1 c 0.7,-1.4 2.4,-2.7 4.8,-2.7 2,0 5.1,1.2 5.1,6.2 v 8.7 h -2.6 V 37 c 0,-2.3 -0.9,-4.3 -3.4,-4.3 -1.7,0 -3.1,1.2 -3.5,2.7 -0.1,0.3 -0.2,0.8 -0.2,1.2 v 8.7 h -2.6 V 34.7 Z"
       id="path35"
       inkscape:connector-curvature="0" /><path
       d="m 292.5,45.3 -0.2,-1.8 h -0.1 c -0.8,1.1 -2.4,2.2 -4.4,2.2 -2.9,0 -4.4,-2.1 -4.4,-4.2 0,-3.5 3.1,-5.4 8.7,-5.4 v -0.3 c 0,-1.2 -0.3,-3.4 -3.3,-3.4 -1.3,0 -2.8,0.4 -3.8,1.1 l -0.6,-1.7 c 1.2,-0.8 2.9,-1.3 4.8,-1.3 4.4,0 5.5,3 5.5,5.9 v 5.4 c 0,1.3 0.1,2.5 0.2,3.5 z m -0.4,-7.4 c -2.9,-0.1 -6.1,0.5 -6.1,3.3 0,1.7 1.1,2.5 2.5,2.5 1.9,0 3.1,-1.2 3.5,-2.4 0.1,-0.3 0.2,-0.6 0.2,-0.8 v -2.6 z"
       id="path37"
       inkscape:connector-curvature="0" /><path
       d="m 317.8,24 v 17.5 c 0,1.3 0,2.8 0.1,3.8 h -2.4 l -0.1,-2.5 h -0.1 c -0.8,1.6 -2.6,2.8 -5,2.8 -3.5,0 -6.2,-3 -6.2,-7.4 0,-4.8 3,-7.8 6.5,-7.8 2.2,0 3.7,1 4.4,2.2 h 0.1 V 24 Z m -2.6,12.7 c 0,-0.3 0,-0.8 -0.1,-1.1 -0.4,-1.7 -1.8,-3.1 -3.8,-3.1 -2.7,0 -4.3,2.4 -4.3,5.6 0,2.9 1.4,5.4 4.3,5.4 1.8,0 3.4,-1.2 3.9,-3.2 0.1,-0.4 0.1,-0.7 0.1,-1.1 v -2.5 z"
       id="path39"
       inkscape:connector-curvature="0" /><path
       d="m 334.4,41.3 c 0,1.5 0,2.8 0.1,4 h -2.3 l -0.1,-2.4 H 332 c -0.7,1.2 -2.2,2.7 -4.8,2.7 -2.3,0 -5,-1.3 -5,-6.4 v -8.5 h 2.6 v 8 c 0,2.8 0.8,4.6 3.2,4.6 1.8,0 3,-1.2 3.5,-2.4 0.1,-0.4 0.2,-0.9 0.2,-1.3 v -8.9 h 2.6 v 10.6 z"
       id="path41"
       inkscape:connector-curvature="0" /><path
       d="m 351.3,24 v 17.5 c 0,1.3 0,2.8 0.1,3.8 H 349 l -0.1,-2.5 h -0.1 c -0.8,1.6 -2.6,2.8 -5,2.8 -3.5,0 -6.2,-3 -6.2,-7.4 0,-4.8 3,-7.8 6.5,-7.8 2.2,0 3.7,1 4.4,2.2 h 0.1 V 24 Z m -2.7,12.7 c 0,-0.3 0,-0.8 -0.1,-1.1 -0.4,-1.7 -1.8,-3.1 -3.8,-3.1 -2.7,0 -4.3,2.4 -4.3,5.6 0,2.9 1.4,5.4 4.3,5.4 1.8,0 3.4,-1.2 3.9,-3.2 0.1,-0.4 0.1,-0.7 0.1,-1.1 v -2.5 z"
       id="path43"
       inkscape:connector-curvature="0" /><path
       d="m 363.7,45.3 -0.2,-1.8 h -0.1 c -0.8,1.1 -2.4,2.2 -4.4,2.2 -2.9,0 -4.4,-2.1 -4.4,-4.2 0,-3.5 3.1,-5.4 8.7,-5.4 v -0.3 c 0,-1.2 -0.3,-3.4 -3.3,-3.4 -1.3,0 -2.8,0.4 -3.8,1.1 l -0.6,-1.7 c 1.2,-0.8 2.9,-1.3 4.8,-1.3 4.4,0 5.5,3 5.5,5.9 v 5.4 c 0,1.3 0.1,2.5 0.2,3.5 z m -0.4,-7.4 c -2.9,-0.1 -6.1,0.5 -6.1,3.3 0,1.7 1.1,2.5 2.5,2.5 1.9,0 3.1,-1.2 3.5,-2.4 0.1,-0.3 0.2,-0.6 0.2,-0.8 v -2.6 z"
       id="path45"
       inkscape:connector-curvature="0" /><path
       d="m 372.2,39.6 -0.1,-0.8 c -0.2,-1.6 0.4,-3.4 1.9,-5.2 1.4,-1.6 2.1,-2.8 2.1,-4.1 0,-1.5 -1,-2.5 -2.9,-2.6 -1.1,0 -2.3,0.4 -3,0.9 l -0.7,-1.9 c 1,-0.7 2.7,-1.2 4.3,-1.2 3.4,0 5,2.1 5,4.4 0,2 -1.1,3.5 -2.6,5.2 -1.3,1.6 -1.8,2.9 -1.7,4.4 v 0.8 h -2.3 z m -0.7,4.2 c 0,-1.1 0.8,-1.9 1.8,-1.9 1.1,0 1.8,0.8 1.8,1.9 0,1.1 -0.7,1.9 -1.8,1.9 -1.1,-0.1 -1.8,-0.9 -1.8,-1.9 z"
       id="path47"
       inkscape:connector-curvature="0" /><path
       class="st0"
       d="m 188.1,80.6 c -1,0.5 -2.9,1 -5.3,1 -5.7,0 -10,-3.6 -10,-10.2 0,-6.3 4.3,-10.6 10.6,-10.6 2.5,0 4.1,0.5 4.8,0.9 l -0.6,2.1 c -1,-0.5 -2.4,-0.8 -4.1,-0.8 -4.7,0 -7.9,3 -7.9,8.3 0,5 2.9,8.1 7.8,8.1 1.6,0 3.2,-0.3 4.3,-0.8 z"
       id="path49"
       inkscape:connector-curvature="0"
       style="fill:#333333" /><path
       class="st0"
       d="m 204.1,73.9 c 0,5.4 -3.7,7.7 -7.2,7.7 -3.9,0 -7,-2.9 -7,-7.5 0,-4.9 3.2,-7.7 7.2,-7.7 4.1,0.1 7,3.1 7,7.5 z m -11.6,0.2 c 0,3.2 1.8,5.6 4.4,5.6 2.5,0 4.4,-2.4 4.4,-5.6 0,-2.5 -1.2,-5.6 -4.3,-5.6 -3.1,0 -4.5,2.8 -4.5,5.6 z"
       id="path51"
       inkscape:connector-curvature="0"
       style="fill:#333333" /><path
       class="st0"
       d="m 207.4,70.7 c 0,-1.5 0,-2.7 -0.1,-3.9 h 2.3 l 0.2,2.4 h 0.1 c 0.7,-1.4 2.4,-2.7 4.8,-2.7 2,0 5.1,1.2 5.1,6.2 v 8.7 h -2.6 V 73 c 0,-2.3 -0.9,-4.3 -3.4,-4.3 -1.7,0 -3.1,1.2 -3.5,2.7 -0.1,0.3 -0.2,0.8 -0.2,1.2 v 8.7 h -2.6 V 70.7 Z"
       id="path53"
       inkscape:connector-curvature="0"
       style="fill:#333333" /><path
       class="st0"
       d="m 227.1,62.6 v 4.2 h 3.8 v 2 h -3.8 v 7.8 c 0,1.8 0.5,2.8 2,2.8 0.7,0 1.2,-0.1 1.5,-0.2 l 0.1,2 c -0.5,0.2 -1.3,0.4 -2.3,0.4 -1.2,0 -2.2,-0.4 -2.8,-1.1 -0.8,-0.8 -1,-2.1 -1,-3.8 v -7.9 h -2.3 v -2 h 2.3 v -3.5 z"
       id="path55"
       inkscape:connector-curvature="0"
       style="fill:#333333" /><path
       class="st0"
       d="m 241.9,81.3 -0.2,-1.8 h -0.1 c -0.8,1.1 -2.4,2.2 -4.4,2.2 -2.9,0 -4.4,-2.1 -4.4,-4.2 0,-3.5 3.1,-5.4 8.7,-5.4 v -0.3 c 0,-1.2 -0.3,-3.4 -3.3,-3.4 -1.3,0 -2.8,0.4 -3.8,1.1 l -0.6,-1.7 c 1.2,-0.8 2.9,-1.3 4.8,-1.3 4.4,0 5.5,3 5.5,5.9 v 5.4 c 0,1.3 0.1,2.5 0.2,3.5 z m -0.4,-7.4 c -2.9,-0.1 -6.2,0.5 -6.2,3.3 0,1.7 1.1,2.5 2.5,2.5 1.9,0 3.1,-1.2 3.5,-2.4 0.1,-0.3 0.2,-0.6 0.2,-0.8 z"
       id="path57"
       inkscape:connector-curvature="0"
       style="fill:#333333" /><path
       class="st0"
       d="m 258.7,80.8 c -0.7,0.4 -2.2,0.8 -4.2,0.8 -4.4,0 -7.2,-3 -7.2,-7.4 0,-4.5 3.1,-7.7 7.8,-7.7 1.6,0 2.9,0.4 3.7,0.8 l -0.6,2 c -0.6,-0.4 -1.6,-0.7 -3.1,-0.7 -3.3,0 -5.1,2.5 -5.1,5.5 0,3.4 2.2,5.4 5,5.4 1.5,0 2.5,-0.4 3.2,-0.7 z"
       id="path59"
       inkscape:connector-curvature="0"
       style="fill:#333333" /><path
       class="st0"
       d="m 265.3,62.6 v 4.2 h 3.8 v 2 h -3.8 v 7.8 c 0,1.8 0.5,2.8 2,2.8 0.7,0 1.2,-0.1 1.5,-0.2 l 0.1,2 c -0.5,0.2 -1.3,0.4 -2.3,0.4 -1.2,0 -2.2,-0.4 -2.8,-1.1 -0.8,-0.8 -1,-2.1 -1,-3.8 v -7.9 h -2.3 v -2 h 2.3 v -3.5 z"
       id="path61"
       inkscape:connector-curvature="0"
       style="fill:#333333" /><path
       class="st0"
       d="m 280.1,81.3 -0.2,-1.8 h -0.1 c -0.8,1.1 -2.4,2.2 -4.4,2.2 -2.9,0 -4.4,-2.1 -4.4,-4.2 0,-3.5 3.1,-5.4 8.7,-5.4 v -0.3 c 0,-1.2 -0.3,-3.4 -3.3,-3.4 -1.3,0 -2.8,0.4 -3.8,1.1 L 272,67.8 c 1.2,-0.8 2.9,-1.3 4.8,-1.3 4.4,0 5.5,3 5.5,5.9 v 5.4 c 0,1.3 0.1,2.5 0.2,3.5 z m -0.4,-7.4 c -2.9,-0.1 -6.1,0.5 -6.1,3.3 0,1.7 1.1,2.5 2.5,2.5 1.9,0 3.1,-1.2 3.5,-2.4 0.1,-0.3 0.2,-0.6 0.2,-0.8 v -2.6 z"
       id="path63"
       inkscape:connector-curvature="0"
       style="fill:#333333" /><path
       class="st0"
       d="m 286.5,70.7 c 0,-1.5 0,-2.7 -0.1,-3.9 h 2.3 l 0.2,2.4 h 0.1 c 0.7,-1.4 2.4,-2.7 4.8,-2.7 2,0 5.1,1.2 5.1,6.2 v 8.7 h -2.6 V 73 c 0,-2.3 -0.9,-4.3 -3.4,-4.3 -1.7,0 -3.1,1.2 -3.5,2.7 -0.1,0.3 -0.2,0.8 -0.2,1.2 v 8.7 h -2.6 V 70.7 Z"
       id="path65"
       inkscape:connector-curvature="0"
       style="fill:#333333" /><path
       class="st0"
       d="m 316.3,73.9 c 0,5.4 -3.7,7.7 -7.2,7.7 -3.9,0 -7,-2.9 -7,-7.5 0,-4.9 3.2,-7.7 7.2,-7.7 4.2,0.1 7,3.1 7,7.5 z m -11.5,0.2 c 0,3.2 1.8,5.6 4.4,5.6 2.5,0 4.4,-2.4 4.4,-5.6 0,-2.5 -1.2,-5.6 -4.3,-5.6 -3.2,-0.1 -4.5,2.8 -4.5,5.6 z"
       id="path67"
       inkscape:connector-curvature="0"
       style="fill:#333333" /><path
       class="st0"
       d="m 319.3,78.6 c 0.8,0.5 2.2,1 3.5,1 1.9,0 2.8,-1 2.8,-2.2 0,-1.3 -0.8,-2 -2.7,-2.7 -2.6,-0.9 -3.8,-2.4 -3.8,-4.1 0,-2.3 1.9,-4.3 5,-4.3 1.5,0 2.8,0.4 3.6,0.9 l -0.7,1.9 c -0.6,-0.4 -1.6,-0.8 -3,-0.8 -1.6,0 -2.4,0.9 -2.4,2 0,1.2 0.9,1.7 2.8,2.5 2.5,1 3.8,2.2 3.8,4.4 0,2.5 -2,4.3 -5.4,4.3 -1.6,0 -3.1,-0.4 -4.1,-1 z"
       id="path69"
       inkscape:connector-curvature="0"
       style="fill:#333333" /></g></svg>